<svg viewBox="0 0 100 100" xmlns="http://www.w3.org/2000/svg">
<rect width="100" height="100" fill="#ffffff"/>
<g fill="none" stroke="#1a1a1a" stroke-width="2.3" stroke-linecap="round" stroke-linejoin="round">
<path d="M22 42 Q20 18 50 15 Q80 18 78 42 L80 80 Q73 73 71 58 Q71 50 67 46 L33 46 Q29 50 29 58 Q27 73 20 80Z"/>
<path d="M30 44 Q30 30 50 28 Q70 30 70 44 Q72 60 60 73 Q50 81 40 73 Q28 60 30 44Z"/>
<path d="M32 38 Q50 28 68 38"/>
<path d="M37 45 l-2 -3"/><path d="M44 45 l2 -3"/>
<path d="M56 45 l-2 -3"/><path d="M63 45 l2 -3"/>
<path d="M38 47 Q41 44 44 47"/><path d="M56 47 Q59 44 62 47"/>
<circle cx="41" cy="48" r="1.5" fill="#1a1a1a"/><circle cx="59" cy="48" r="1.5" fill="#1a1a1a"/>
<path d="M44 62 Q50 67 56 62" stroke="#e0568a"/>
<path d="M26 24 l-9 -5 l2 9 Z" stroke="#e0568a"/><path d="M26 24 l-9 5 l2 -9 Z" stroke="#e0568a"/>
</g>
</svg>
