<svg viewBox="0 0 100 100" xmlns="http://www.w3.org/2000/svg">
<rect width="100" height="100" fill="#ffffff"/>
<g fill="none" stroke="#1a1a1a" stroke-width="2.2" stroke-linecap="round" stroke-linejoin="round">
<path d="M24 54 Q24 34 50 30 Q78 34 78 56 Q76 80 50 86 Q26 82 24 54Z"/>
<circle cx="30" cy="34" r="5"/><circle cx="40" cy="26" r="5"/><circle cx="50" cy="23" r="5"/>
<circle cx="60" cy="26" r="5"/><circle cx="70" cy="34" r="5"/>
<circle cx="35" cy="30" r="4"/><circle cx="55" cy="24" r="4"/><circle cx="65" cy="30" r="4"/>
<path d="M33 50 Q39 46 45 50"/>
<path d="M55 50 Q61 46 67 50"/>
<circle cx="39" cy="51" r="1.4" fill="#1a1a1a"/>
<circle cx="61" cy="51" r="1.4" fill="#1a1a1a"/>
<path d="M40 66 q4 4 8 0 q4 -4 8 0 q4 4 4 4"/>
</g>
</svg>
